<svg width="32" height="26" viewBox="0 0 32 26" fill="none" xmlns="http://www.w3.org/2000/svg">
<path d="M13.9452 25.7731L10.8954 24.8882C10.5754 24.7982 10.3954 24.4632 10.4854 24.1432L17.3099 0.635073C17.3999 0.315098 17.7349 0.135112 18.0548 0.225105L21.1046 1.11004C21.4246 1.20003 21.6046 1.535 21.5146 1.85498L14.6901 25.3631C14.5951 25.6831 14.2651 25.8681 13.9452 25.7731ZM8.24561 20.1635L10.4204 17.8437C10.6504 17.5987 10.6354 17.2088 10.3804 16.9838L5.85079 12.9991L10.3804 9.01442C10.6354 8.78944 10.6554 8.39947 10.4204 8.15449L8.24561 5.83467C8.02062 5.59469 7.64065 5.57969 7.39567 5.80967L0.191235 12.5591C-0.063745 12.7941 -0.063745 13.1991 0.191235 13.4341L7.39567 20.1885C7.64065 20.4185 8.02062 20.4085 8.24561 20.1635ZM24.6043 20.1935L31.8088 13.4391C32.0637 13.2041 32.0637 12.7991 31.8088 12.5641L24.6043 5.80467C24.3643 5.57969 23.9844 5.58969 23.7544 5.82967L21.5796 8.14949C21.3496 8.39447 21.3646 8.78444 21.6196 9.00942L26.1492 12.9991L21.6196 16.9838C21.3646 17.2088 21.3446 17.5987 21.5796 17.8437L23.7544 20.1635C23.9794 20.4085 24.3593 20.4185 24.6043 20.1935Z" fill="#C0BEC9"/>
</svg>
